<svg id="mermaidChart159" width="100%" xmlns="http://www.w3.org/2000/svg" height="100%" style="max-width:450px;" viewBox="-50 -10 450 428"><style type="text/css" title="mermaid-svg-internal-css">/*  */
*, ::before, ::after { box-sizing: inherit;}
.actor { stroke: rgb(204, 204, 255); fill: rgb(226, 236, 255);}
text.actor { fill: black; stroke: none; font-size: 12px;}
.actor-line { stroke: grey;}
.messageLine0 { stroke-width: 1.5; stroke: black;}
#arrowhead { fill: black;}
.messageText { fill: black; stroke: none; font-size: 12px;}
.note { stroke: rgb(204, 204, 255); fill: rgb(255, 245, 173);}
.noteText { fill: black; stroke: none; font-size: 12px;}
.actor { stroke: rgb(204, 204, 255); fill: rgb(236, 236, 255);}
text.actor { fill: black; stroke: none;}
.actor-line { stroke: grey;}
.messageLine0 { stroke-width: 1.5; stroke: rgb(51, 51, 51);}
#arrowhead { fill: rgb(51, 51, 51);}
#crosshead path { fill: rgb(51, 51, 51) !important; stroke: rgb(51, 51, 51) !important;}
.messageText { fill: rgb(51, 51, 51); stroke: none;}
.note { stroke: rgb(170, 170, 51); fill: rgb(255, 245, 173);}
.noteText { fill: black; stroke: none; font-family: "trebuchet ms", verdana, arial; font-size: 14px;}
text { font-family: "trebuchet ms", verdana, arial; font-size: 14px;}
/*  */
</style><g></g><g><line id="actor502" x1="75" y1="5" x2="75" y2="417" class="actor-line" stroke-width="0.5px" stroke="#999"></line><rect x="0" y="0" fill="#eaeaea" stroke="#666" width="150" height="65" rx="3" ry="3" class="actor"></rect><text x="75" y="37.5" class="actor" style="text-anchor: middle;">Coordinator</text></g><g><line id="actor503" x1="275" y1="5" x2="275" y2="417" class="actor-line" stroke-width="0.5px" stroke="#999"></line><rect x="200" y="0" fill="#eaeaea" stroke="#666" width="150" height="65" rx="3" ry="3" class="actor"></rect><text x="275" y="37.5" class="actor" style="text-anchor: middle;">Subordinate</text></g><defs><marker id="arrowhead" refX="5" refY="2" markerWidth="6" markerHeight="4" orient="auto"><path d="M 0,0 V 4 L6,2 Z"></path></marker></defs><defs><marker id="crosshead" markerWidth="15" markerHeight="8" orient="auto" refX="16" refY="4"><path fill="black" stroke="#000000" stroke-width="1px" d="M 9,2 V 6 L16,4 Z" style="stroke-dasharray: 0, 0;"></path><path fill="none" stroke="#000000" stroke-width="1px" d="M 0,1 L 6,7 M 6,1 L 0,7" style="stroke-dasharray: 0, 0;"></path></marker></defs><g><text x="175" y="93" class="messageText" style="text-anchor: middle;">Prepare</text><line x1="75" y1="100" x2="275" y2="100" class="messageLine0" stroke-width="2" stroke="black" marker-end="url(#arrowhead)" style="fill: none;"></line></g><g><rect x="270" y="102" fill="#f4f4f4" stroke="#666" width="10" height="33" rx="0" ry="0"></rect></g><g><text x="172.5" y="128" class="messageText" style="text-anchor: middle;">YES</text><line x1="270" y1="135" x2="75" y2="135" class="messageLine0" stroke-width="2" stroke="black" marker-end="url(#arrowhead)" style="fill: none;"></line></g><g><rect x="200" y="145" fill="#EDF2AE" stroke="#666" width="150" height="36" rx="0" ry="0" class="note"></rect><text x="216" y="173" fill="black" class="noteText"><tspan x="216">Disconnect</tspan></text></g><g><text x="175" y="209" class="messageText" style="text-anchor: middle;">Commit</text><line x1="75" y1="216" x2="275" y2="216" class="messageLine0" stroke-width="2" stroke="black" marker-end="url(#arrowhead)" style="fill: none;"></line></g><g><rect x="200" y="226" fill="#EDF2AE" stroke="#666" width="150" height="36" rx="0" ry="0" class="note"></rect><text x="216" y="254" fill="black" class="noteText"><tspan x="216">Reconnect</tspan></text></g><g><text x="175" y="290" class="messageText" style="text-anchor: middle;">Commit retry</text><line x1="75" y1="297" x2="275" y2="297" class="messageLine0" stroke-width="2" stroke="black" marker-end="url(#arrowhead)" style="fill: none;"></line></g><g><rect x="270" y="299" fill="#f4f4f4" stroke="#666" width="10" height="33" rx="0" ry="0"></rect></g><g><text x="172.5" y="325" class="messageText" style="text-anchor: middle;">ACK</text><line x1="270" y1="332" x2="75" y2="332" class="messageLine0" stroke-width="2" stroke="black" marker-end="url(#arrowhead)" style="fill: none;"></line></g><g><rect x="0" y="352" fill="#eaeaea" stroke="#666" width="150" height="65" rx="3" ry="3" class="actor"></rect><text x="75" y="389.5" class="actor" style="text-anchor: middle;">Coordinator</text></g><g><rect x="200" y="352" fill="#eaeaea" stroke="#666" width="150" height="65" rx="3" ry="3" class="actor"></rect><text x="275" y="389.5" class="actor" style="text-anchor: middle;">Subordinate</text></g></svg>